<?xml version="1.0" encoding="UTF-8" standalone="no"?>
<!DOCTYPE svg PUBLIC "-//W3C//DTD SVG 1.1//EN"
 "http://www.w3.org/Graphics/SVG/1.1/DTD/svg11.dtd">
<!-- Generated by graphviz version 2.36.0 (20140111.2315)
 -->
<!-- Title: data_workflow Pages: 1 -->
<svg width="740pt" height="46pt"
 viewBox="0.00 0.00 740.00 46.00" xmlns="http://www.w3.org/2000/svg" xmlns:xlink="http://www.w3.org/1999/xlink">
<g id="graph0" class="graph" transform="scale(1 1) rotate(0) translate(4 42)">
<title>data_workflow</title>
<polygon fill="white" stroke="none" points="-4,4 -4,-42 736,-42 736,4 -4,4"/>
<!-- aleph -->
<g id="node1" class="node"><title>aleph</title>
<polygon fill="none" stroke="black" points="125.5,-38 0.5,-38 0.5,-0 125.5,-0 125.5,-38"/>
<text text-anchor="middle" x="63" y="-22.8" font-family="Helvetica,sans-Serif" font-size="14.00">Bibliothekssystem</text>
<text text-anchor="middle" x="63" y="-7.8" font-family="Helvetica,sans-Serif" font-size="14.00">(Aleph)</text>
</g>
<!-- metafacture -->
<g id="node2" class="node"><title>metafacture</title>
<polygon fill="none" stroke="black" points="302,-38 162,-38 162,-0 302,-0 302,-38"/>
<text text-anchor="middle" x="232" y="-22.8" font-family="Helvetica,sans-Serif" font-size="14.00">Datentransformation</text>
<text text-anchor="middle" x="232" y="-7.8" font-family="Helvetica,sans-Serif" font-size="14.00">(Metafacture)</text>
</g>
<!-- aleph&#45;&gt;metafacture -->
<g id="edge1" class="edge"><title>aleph&#45;&gt;metafacture</title>
<path fill="none" stroke="black" d="M125.71,-19C134.191,-19 142.995,-19 151.737,-19"/>
<polygon fill="black" stroke="black" points="151.948,-22.5001 161.947,-19 151.947,-15.5001 151.948,-22.5001"/>
</g>
<!-- elasticsearch -->
<g id="node3" class="node"><title>elasticsearch</title>
<polygon fill="none" stroke="black" points="444,-38 338,-38 338,-0 444,-0 444,-38"/>
<text text-anchor="middle" x="391" y="-22.8" font-family="Helvetica,sans-Serif" font-size="14.00">Indexierung</text>
<text text-anchor="middle" x="391" y="-7.8" font-family="Helvetica,sans-Serif" font-size="14.00">(Elasticsearch)</text>
</g>
<!-- metafacture&#45;&gt;elasticsearch -->
<g id="edge2" class="edge"><title>metafacture&#45;&gt;elasticsearch</title>
<path fill="none" stroke="black" d="M302.319,-19C310.637,-19 319.093,-19 327.309,-19"/>
<polygon fill="black" stroke="black" points="327.558,-22.5001 337.558,-19 327.558,-15.5001 327.558,-22.5001"/>
</g>
<!-- lobid -->
<g id="node4" class="node"><title>lobid</title>
<polygon fill="none" stroke="black" points="556,-38 480,-38 480,-0 556,-0 556,-38"/>
<text text-anchor="middle" x="518" y="-22.8" font-family="Helvetica,sans-Serif" font-size="14.00">Lobid&#45;API</text>
<text text-anchor="middle" x="518" y="-7.8" font-family="Helvetica,sans-Serif" font-size="14.00">(Play)</text>
</g>
<!-- elasticsearch&#45;&gt;lobid -->
<g id="edge3" class="edge"><title>elasticsearch&#45;&gt;lobid</title>
<path fill="none" stroke="black" d="M444.287,-19C452.66,-19 461.284,-19 469.537,-19"/>
<polygon fill="black" stroke="black" points="469.745,-22.5001 479.744,-19 469.744,-15.5001 469.745,-22.5001"/>
</g>
<!-- nwbib -->
<g id="node5" class="node"><title>nwbib</title>
<polygon fill="none" stroke="black" points="732,-38 592,-38 592,-0 732,-0 732,-38"/>
<text text-anchor="middle" x="662" y="-22.8" font-family="Helvetica,sans-Serif" font-size="14.00">NWBib</text>
<text text-anchor="middle" x="662" y="-7.8" font-family="Helvetica,sans-Serif" font-size="14.00">(Play und Bootstrap)</text>
</g>
<!-- lobid&#45;&gt;nwbib -->
<g id="edge4" class="edge"><title>lobid&#45;&gt;nwbib</title>
<path fill="none" stroke="black" d="M556.309,-19C564.249,-19 572.922,-19 581.767,-19"/>
<polygon fill="black" stroke="black" points="581.797,-22.5001 591.797,-19 581.797,-15.5001 581.797,-22.5001"/>
</g>
</g>
</svg>
